<svg height="24" width="24" viewBox="0 0 24 24" preserveAspectRatio="xMidYMid meet" role="img" xmlns="http://www.w3.org/2000/svg" class="base-icon__StyledIconSvg-sc-fzrbhv-0 iZmRxR"><title>Tor</title><path fill-rule="evenodd" clip-rule="evenodd" d="M11.25 7.81597C9.89214 8.05773 8.75741 8.94433 8.17376 10.1478L9.8669 10.6734L11.25 9.56461V7.81597ZM7.75 12C7.75 11.8627 7.75651 11.7268 7.76925 11.5928L9.39052 12.0961L9.93736 13.8669L9.1066 15.113C8.27206 14.337 7.75 13.2295 7.75 12ZM10.3679 15.9253C10.8704 16.1345 11.4217 16.25 12 16.25C12.5783 16.25 13.1296 16.1345 13.6321 15.9253L12.8486 14.75H11.1514L10.3679 15.9253ZM14.0626 13.8669L14.8934 15.113C15.7279 14.337 16.25 13.2295 16.25 12C16.25 11.8627 16.2435 11.7268 16.2308 11.5928L14.6095 12.0961L14.0626 13.8669ZM12.75 7.81597C14.1079 8.05773 15.2426 8.94433 15.8262 10.1478L14.1331 10.6734L12.75 9.56462V7.81597ZM6.25 12C6.25 8.82436 8.82436 6.25 12 6.25C15.1756 6.25 17.75 8.82436 17.75 12C17.75 15.1756 15.1756 17.75 12 17.75C8.82436 17.75 6.25 15.1756 6.25 12ZM10.8671 11.794L11.3167 13.25H12.6833L13.1329 11.794L12 10.8859L10.8671 11.794Z"></path></svg>