<svg height="24" width="24" viewBox="0 0 24 24" preserveAspectRatio="xMidYMid meet" role="img" xmlns="http://www.w3.org/2000/svg" class="base-icon__StyledIconSvg-sc-fzrbhv-0 iZmRxR"><title>Auswechslung</title><path fill-rule="evenodd" clip-rule="evenodd" d="M10.0303 7.53033L8.96966 6.46967L6.43933 9L8.96966 11.5303L10.0303 10.4697L9.31066 9.75H13.5C14.7426 9.75 15.75 10.7574 15.75 12H17.25C17.25 9.92893 15.5711 8.25 13.5 8.25H9.31065L10.0303 7.53033ZM10.5 15.75C8.42892 15.75 6.74999 14.0711 6.74999 12H8.24999C8.24999 13.2426 9.25735 14.25 10.5 14.25H14.6893L13.9697 13.5303L15.0303 12.4697L17.5607 15L15.0303 17.5303L13.9697 16.4697L14.6893 15.75H10.5Z"></path></svg>