<svg height="32" width="32" viewBox="0 0 24 24" preserveAspectRatio="xMidYMid meet" role="img" xmlns="http://www.w3.org/2000/svg"><path fill-rule="evenodd" clip-rule="evenodd" d="M1.25 12C1.25 6.06294 6.06293 1.25 12 1.25C17.9371 1.25 22.75 6.06294 22.75 12C22.75 17.3664 18.8186 21.8129 13.6788 22.6195L12.8125 22.7554V14.1406H15.2488L15.4621 12.75H12.8125V10.1242C12.8125 9.61973 12.9348 9.02962 13.3442 8.55619C13.7712 8.06245 14.4081 7.8125 15.1921 7.8125H15.7031V6.75421C15.6883 6.75246 15.6733 6.75071 15.6581 6.74896C15.25 6.70183 14.7218 6.65625 14.2146 6.65625C13.2241 6.65625 12.4878 6.95361 12.0001 7.4418C11.5131 7.92924 11.1875 8.69342 11.1875 9.79688V12.75H8.64844V14.1406H11.1875V22.7554L10.3212 22.6195C5.18143 21.8129 1.25 17.3664 1.25 12ZM16.4531 6.10156L16.5793 5.36225L17.2031 5.46872V9.3125H15.1921C14.7339 9.3125 14.5561 9.44797 14.4788 9.53735C14.3839 9.64705 14.3125 9.83777 14.3125 10.1242V11.25H17.2097L16.5363 15.6406H14.3125V20.9586C18.3019 19.932 21.25 16.3097 21.25 12C21.25 6.89136 17.1086 2.75 12 2.75C6.89136 2.75 2.75 6.89136 2.75 12C2.75 16.3097 5.69805 19.932 9.6875 20.9586V15.6406H7.14844V11.25H9.6875V9.79688C9.6875 8.39408 10.1084 7.21295 10.9389 6.38164C11.7687 5.55108 12.921 5.15625 14.2146 5.15625C14.8016 5.15625 15.3926 5.20833 15.8302 5.25886C16.0506 5.28431 16.2357 5.30979 16.3665 5.32904C16.4319 5.33868 16.4839 5.34677 16.5201 5.35256L16.5624 5.35942L16.5741 5.36138L16.5775 5.36195L16.5793 5.36225C16.5794 5.36226 16.5793 5.36225 16.4531 6.10156Z"></path></svg>
