<svg height="40" width="40" viewBox="0 0 40 40" preserveAspectRatio="xMidYMid meet" role="img" xmlns="http://www.w3.org/2000/svg" class="base-icon__StyledIconSvg-sc-fzrbhv-0 iZmRxR"><title>icon</title><path fill-rule="evenodd" clip-rule="evenodd" d="M32.1167 18.0758C30.0295 18.8717 27.177 19.25 24 19.25C15.8476 19.25 12.3187 23.5549 11.7055 25.2545L10.2946 24.7455C11.1507 22.3724 15.3035 17.75 24 17.75C27.0884 17.75 29.7358 17.3783 31.5823 16.6742C33.4649 15.9563 34.25 15.0148 34.25 14H35.75C35.75 15.9852 34.1678 17.2937 32.1167 18.0758Z" fill="currentColor"></path><path fill-rule="evenodd" clip-rule="evenodd" d="M30.6796 2.68284C30.558 2.42222 30.2981 2.2541 30.0105 2.25007C29.7229 2.24605 29.4584 2.40682 29.3295 2.66393C29.1126 3.09661 28.2807 4.00059 26.5656 4.80278C24.8814 5.59047 22.4028 6.25 19 6.25C10.771 6.25 7.04174 10.1304 6.27899 12.7935C6.23609 12.9433 6.2409 13.1027 6.29276 13.2496L12.2928 30.2496C12.413 30.5902 12.7589 30.7967 13.1157 30.741C13.4726 30.6853 13.739 30.3831 13.7497 30.0221C13.8179 27.7082 16.3927 22.75 24 22.75C28.5338 22.75 31.7403 22.3111 33.9112 21.5517C36.0797 20.793 37.3579 19.6569 37.7275 18.1823C37.7694 18.0153 37.7525 17.8389 37.6796 17.6828L30.6796 2.68284ZM19 7.75C22.5972 7.75 25.2963 7.05238 27.2011 6.16151C28.3439 5.62702 29.2241 5.01084 29.834 4.41791L36.1973 18.0536C35.921 18.7647 35.1616 19.5251 33.4159 20.1358C31.4777 20.8139 28.4662 21.25 24 21.25C17.6086 21.25 14.1916 24.4847 12.8843 27.4187L7.79173 12.9898C8.4806 11.0998 11.5242 7.75 19 7.75ZM3.28564 13.2286L11.2856 38.2286L12.7143 37.7714L4.71428 12.7714L3.28564 13.2286Z" fill="currentColor"></path></svg>
