<svg height="40" width="40" viewBox="0 0 40 40" preserveAspectRatio="xMidYMid meet" role="img" xmlns="http://www.w3.org/2000/svg" class="base-icon__StyledIconSvg-sc-fzrbhv-0 iZmRxR"><title>icon</title><path fill-rule="evenodd" clip-rule="evenodd" d="M20 22.5C21.3807 22.5 22.5 21.3807 22.5 20C22.5 18.6193 21.3807 17.5 20 17.5C18.6193 17.5 17.5 18.6193 17.5 20C17.5 21.3807 18.6193 22.5 20 22.5ZM20 24C22.2091 24 24 22.2091 24 20C24 17.7909 22.2091 16 20 16C17.7909 16 16 17.7909 16 20C16 22.2091 17.7909 24 20 24Z" fill="currentColor"></path><path fill-rule="evenodd" clip-rule="evenodd" d="M20.75 7.5H38C38.2761 7.5 38.5 7.72386 38.5 8V10H31V14.6946C29.3331 15.7724 28.25 17.7662 28.25 20C28.25 22.2338 29.3331 24.2276 31 25.3053V30H38.5V32C38.5 32.2761 38.2761 32.5 38 32.5H20.75V7.5ZM29.75 20C29.75 18.6656 30.2384 17.4846 31 16.6489V23.3511C30.2384 22.5153 29.75 21.3344 29.75 20ZM19.25 7.5H2C1.72386 7.5 1.5 7.72386 1.5 8V10H9V14.6946C10.6669 15.7724 11.75 17.7662 11.75 20C11.75 22.2338 10.6669 24.2276 9 25.3053V30H1.5V32C1.5 32.2761 1.72386 32.5 2 32.5H19.25V7.5ZM9 23.3511V16.6489C9.76164 17.4846 10.25 18.6656 10.25 20C10.25 21.3344 9.76164 22.5154 9 23.3511ZM0 32V30V24V16V10V8C0 6.89543 0.895431 6 2 6H38C39.1046 6 40 6.89543 40 8V10V16V24V30V32C40 33.1046 39.1046 34 38 34H2C0.895431 34 0 33.1046 0 32ZM7.5 28.5H1.5V24H5V16H1.5V11.5H7.5V28.5ZM3.5 22.5H1.5V17.5H3.5V22.5ZM38.5 28.5V24H35V16H38.5V11.5H32.5V28.5H38.5ZM38.5 17.5V22.5H36.5V17.5H38.5Z" fill="currentColor"></path></svg>
