<svg height="24" width="24" viewBox="0 0 24 24" preserveAspectRatio="xMidYMid meet" role="img" xmlns="http://www.w3.org/2000/svg" class="base-icon__StyledIconSvg-sc-fzrbhv-0 iZmRxR"><title>icon</title><path fill-rule="evenodd" clip-rule="evenodd" d="M9.75 5C9.75 3.75736 10.7574 2.75 12 2.75C13.2426 2.75 14.25 3.75736 14.25 5C14.25 6.24264 13.2426 7.25 12 7.25C10.7574 7.25 9.75 6.24264 9.75 5ZM12 1.25C9.92893 1.25 8.25 2.92893 8.25 5C8.25 7.07107 9.92893 8.75 12 8.75C14.0711 8.75 15.75 7.07107 15.75 5C15.75 2.92893 14.0711 1.25 12 1.25ZM2.25 5.72536L12 11.142L21.75 5.72536V17.4413L12 22.858L2.25 17.4413V5.72536ZM3.75 8.27464V16.5587L11.25 20.7254V12.4413L3.75 8.27464ZM20.25 16.5587L12.75 20.7254V12.4413L20.25 8.27464V16.5587ZM14 15.5V14L19 11V12.5L14 15.5ZM14 17V18.5L19 15.5V14L14 17ZM10 15.5V14L5 11V12.5L10 15.5ZM10 17V18.5L5 15.5V14L10 17Z"></path></svg>
