<svg height="40" width="40" viewBox="0 0 40 40" preserveAspectRatio="xMidYMid meet" role="img" xmlns="http://www.w3.org/2000/svg"><path fill-rule="evenodd" clip-rule="evenodd" d="M12 4.25C11.0335 4.25 10.25 5.0335 10.25 6V9V27V28.9535C10.25 32.0184 8.22013 34.25 6 34.25C3.77987 34.25 1.75 32.0184 1.75 28.9535V9H0.25V28.9535C0.25 32.5674 2.69729 35.75 6 35.75H35C37.6234 35.75 39.75 33.6234 39.75 31V6C39.75 5.0335 38.9665 4.25 38 4.25H12ZM9.61133 34.25H35C36.7949 34.25 38.25 32.7949 38.25 31V6C38.25 5.86193 38.1381 5.75 38 5.75H12C11.8619 5.75 11.75 5.86193 11.75 6V9V27V28.9535C11.75 31.0388 10.9352 32.9805 9.61133 34.25ZM5 30V9H7V30H5ZM14 21.75H36V20.25H14V21.75ZM36 25.75H14V24.25H36V25.75ZM14 29.75H32V28.25H14V29.75Z" fill="currentColor"></path><path fill-rule="evenodd" clip-rule="evenodd" d="M15 8.25C14.5858 8.25 14.25 8.58579 14.25 9V17C14.25 17.4142 14.5858 17.75 15 17.75H25C25.4142 17.75 25.75 17.4142 25.75 17V9C25.75 8.58579 25.4142 8.25 25 8.25H15ZM15.75 16.25V9.75H24.25V16.25H15.75ZM28 9.75H36V8.25H28V9.75ZM36 13.75H28V12.25H36V13.75ZM28 17.75H36V16.25H28V17.75Z" fill="currentColor"></path></svg>
