<svg height="32" width="32" viewBox="0 0 24 24" preserveAspectRatio="xMidYMid meet" role="img" xmlns="http://www.w3.org/2000/svg" class="base-icon__StyledIconSvg-sc-fzrbhv-0 iZmRxR"><title>icon</title><path fill-rule="evenodd" clip-rule="evenodd" d="M4.07849 9.05587L4.41208 8.11242C6.97057 8.01975 9.02248 6.46514 10.005 4.5H11.0925C10.434 5.86894 9.63189 6.93427 8.63178 7.68351C7.54482 8.49781 6.09946 9.03067 4.07849 9.05587ZM3.37102 6.55708C6.17689 6.97235 8.39208 5.12904 8.984 3H13.3034C13.1306 3.5195 12.9432 4.0204 12.7387 4.5C11.1443 8.23851 8.5052 10.6825 3.54967 10.5515C3.05648 10.5385 2.54034 10.4999 2 10.4346L3.37102 6.55708ZM7.84534 20.3664H12.2763L18.4205 3H13.9895L7.84534 20.3664ZM15.0499 4.5L9.96714 18.8664H11.2159L16.2987 4.5H15.0499ZM18.409 14.8942H18.4082C17.9944 14.8942 17.5898 15.0169 17.2458 15.2469C16.9017 15.4769 16.6336 15.8037 16.4754 16.1861C16.3171 16.5684 16.2759 16.9892 16.3568 17.395C16.4377 17.8008 16.6372 18.1736 16.93 18.466C17.2228 18.7584 17.5957 18.9575 18.0017 19.0379C18.4076 19.1183 18.8283 19.0765 19.2104 18.9178C19.5926 18.7591 19.9191 18.4906 20.1487 18.1463C20.3782 17.802 20.5005 17.3973 20.5 16.9835L22 16.9816C22.0008 17.6922 21.7909 18.3871 21.3968 18.9783C21.0026 19.5696 20.442 20.0306 19.7857 20.3031C19.1295 20.5756 18.4072 20.6474 17.7101 20.5093C17.0131 20.3712 16.3727 20.0294 15.87 19.5273C15.3672 19.0251 15.0247 18.3852 14.8857 17.6883C14.7468 16.9914 14.8177 16.269 15.0894 15.6125C15.3611 14.9559 15.8215 14.3947 16.4123 13.9998C17.003 13.605 17.6976 13.3942 18.4082 13.3942C19.3602 13.3937 20.2734 13.7714 20.947 14.4441C21.6206 15.1169 21.9993 16.0296 22 16.9816L20.5 16.9827C20.4996 16.4285 20.2791 15.8971 19.887 15.5054C19.4948 15.1138 18.9632 14.8939 18.409 14.8942Z"></path></svg>