<svg height="24" width="24" viewBox="0 0 24 24" preserveAspectRatio="xMidYMid meet" role="img" xmlns="http://www.w3.org/2000/svg"><path fill-rule="evenodd" clip-rule="evenodd" d="M14.5 11C14.5 12.933 12.933 14.5 11 14.5C9.067 14.5 7.5 12.933 7.5 11C7.5 9.067 9.067 7.5 11 7.5C12.933 7.5 14.5 9.067 14.5 11ZM15.0261 13.9654C15.6382 13.1358 16 12.1101 16 11C16 8.23858 13.7614 6 11 6C8.23858 6 6 8.23858 6 11C6 13.7614 8.23858 16 11 16C12.1101 16 13.1358 15.6382 13.9654 15.0261L17.4697 18.5303L18.5303 17.4697L15.0261 13.9654Z"></path></svg>
