<svg height="24" width="24" viewBox="0 0 24 24" preserveAspectRatio="xMidYMid meet" role="img" xmlns="http://www.w3.org/2000/svg" class="base-icon__StyledIconSvg-sc-fzrbhv-0 iZmRxR">
  <path d="M12.25 7.81066L9.31066 10.75H6.75V13.25H9.31066L12.25 16.1893V7.81066ZM11.6161 6.32322C12.4036 5.53576 13.75 6.09348 13.75 7.2071V16.7929C13.75 17.9065 12.4036 18.4642 11.6161 17.6768L8.68934 14.75H6.5C5.80964 14.75 5.25 14.1904 5.25 13.5V10.5C5.25 9.80964 5.80964 9.25 6.5 9.25H8.68934L11.6161 6.32322Z"></path><path d="M14.3647 9.39871C14.3648 9.39883 14.3649 9.39894 15 9C15.6351 8.60106 15.6352 8.60119 15.6352 8.60132L15.6359 8.60234L15.6371 8.60422L15.6405 8.60972L15.6514 8.62757C15.6605 8.64247 15.6731 8.66331 15.6887 8.68964C15.7198 8.74228 15.7629 8.8171 15.8141 8.91059C15.9162 9.097 16.0517 9.36053 16.1876 9.67249C16.4517 10.2788 16.75 11.1417 16.75 12C16.75 12.8583 16.4517 13.7212 16.1876 14.3275C16.0517 14.6395 15.9162 14.903 15.8141 15.0894C15.7629 15.1829 15.7198 15.2577 15.6887 15.3104C15.6731 15.3367 15.6605 15.3575 15.6514 15.3724L15.6405 15.3903L15.6371 15.3958L15.6359 15.3977L15.6352 15.3987C15.6352 15.3988 15.6351 15.3989 15 15C14.3649 14.6011 14.3648 14.6012 14.3647 14.6013L14.371 14.5911C14.3765 14.582 14.3855 14.5673 14.3972 14.5473C14.4208 14.5074 14.4558 14.4469 14.4984 14.3691C14.5838 14.213 14.6982 13.9906 14.8124 13.7285C15.0483 13.1868 15.25 12.5498 15.25 12C15.25 11.4502 15.0483 10.8132 14.8124 10.2715C14.6982 10.0094 14.5838 9.78697 14.4984 9.6309C14.4558 9.55314 14.4208 9.49259 14.3972 9.45267C14.3855 9.43272 14.3765 9.41798 14.371 9.40887L14.3647 9.39871Z"></path><path d="M16.347 7.36889C16.347 7.36899 16.3471 7.3691 17 7C17.6529 6.63089 17.653 6.63102 17.653 6.63116L17.6537 6.63235L17.6551 6.63478L17.6594 6.64253L17.6742 6.66935C17.6868 6.69218 17.7045 6.72479 17.7266 6.76646C17.7709 6.84977 17.8331 6.96948 17.9071 7.11975C18.055 7.4198 18.2515 7.84435 18.4483 8.34625C18.8357 9.33461 19.25 10.6876 19.25 12C19.25 13.3123 18.8357 14.6654 18.4483 15.6537C18.2515 16.1556 18.055 16.5802 17.9071 16.8802C17.8331 17.0305 17.7709 17.1502 17.7266 17.2335C17.7045 17.2752 17.6868 17.3078 17.6742 17.3306L17.6594 17.3575L17.6551 17.3652L17.653 17.3688C17.653 17.369 17.6529 17.3691 17 17C16.3471 16.6309 16.347 16.631 16.347 16.6311L16.3492 16.6272L16.3594 16.6086C16.3689 16.5914 16.3834 16.5647 16.4022 16.5293C16.44 16.4583 16.495 16.3524 16.5616 16.2173C16.695 15.9465 16.8735 15.5611 17.0517 15.1063C17.4143 14.1814 17.75 13.0344 17.75 12C17.75 10.9656 17.4143 9.81863 17.0517 8.89368C16.8735 8.43892 16.695 8.05348 16.5616 7.78272C16.495 7.64758 16.44 7.54167 16.4022 7.47071C16.3834 7.43525 16.3689 7.40857 16.3594 7.39138L16.3492 7.37283L16.347 7.36889C16.347 7.36893 16.3468 7.36862 16.347 7.36889Z"></path>
</svg>