<svg height="40" width="40" viewBox="0 0 40 40" preserveAspectRatio="xMidYMid meet" role="img" xmlns="http://www.w3.org/2000/svg"><path fill-rule="evenodd" clip-rule="evenodd" d="M14 3.25C13.8759 3.25 13.7537 3.2808 13.6444 3.33965L0.644444 10.3396C0.287529 10.5318 0.147912 10.9728 0.329199 11.3354L4.3292 19.3354C4.42263 19.5223 4.58975 19.6617 4.79033 19.7201C4.99091 19.7785 5.20675 19.7506 5.38589 19.6431L9.25002 17.3246V36C9.25002 36.4142 9.58581 36.75 10 36.75H30C30.4142 36.75 30.75 36.4142 30.75 36V17.3246L34.6141 19.6431C34.7933 19.7506 35.0091 19.7785 35.2097 19.7201C35.4103 19.6617 35.5774 19.5223 35.6708 19.3354L39.6708 11.3354C39.8521 10.9728 39.7125 10.5318 39.3556 10.3396L26.3556 3.33965C26.2463 3.2808 26.1241 3.25 26 3.25H24.584C24.2859 3.25 24.0161 3.42655 23.8967 3.69972C23.2402 5.20231 21.7416 6.25 20 6.25C18.2584 6.25 16.7598 5.20231 16.1033 3.69972C15.984 3.42655 15.7142 3.25 15.4161 3.25H14ZM13.2657 5.24724L14.1891 4.75H14.9492C15.9238 6.53629 17.8194 7.75 20 7.75C22.1806 7.75 24.0763 6.53629 25.0508 4.75H25.8109L26.7344 5.24726C25.5778 7.41293 22.9937 9.25 20 9.25C17.0064 9.25 14.4223 7.41292 13.2657 5.24724ZM11.9451 5.95832L4.75834 9.8281L8.16936 16.2238L9.61415 15.3569C9.84585 15.2179 10.1344 15.2142 10.3695 15.3474C10.6047 15.4805 10.75 15.7298 10.75 16V35.25H29.25V16C29.25 15.7298 29.3954 15.4805 29.6305 15.3474C29.8656 15.2142 30.1542 15.2179 30.3859 15.3569L31.8307 16.2237L35.2417 9.82809L28.055 5.95834C26.6482 8.58635 23.5743 10.75 20 10.75C16.4258 10.75 13.3519 8.58633 11.9451 5.95832ZM36.5624 10.5392L33.1185 16.9965L34.6914 17.9402L38.0038 11.3154L36.5624 10.5392ZM1.99624 11.3154L3.43763 10.5393L6.88148 16.9965L5.30864 17.9402L1.99624 11.3154Z" fill="currentColor"></path><path fill-rule="evenodd" clip-rule="evenodd" d="M20 21.5C21.3807 21.5 22.5 20.3807 22.5 19C22.5 17.6193 21.3807 16.5 20 16.5C18.6193 16.5 17.5 17.6193 17.5 19C17.5 20.3807 18.6193 21.5 20 21.5ZM20 23C22.2091 23 24 21.2091 24 19C24 16.7909 22.2091 15 20 15C17.7909 15 16 16.7909 16 19C16 21.2091 17.7909 23 20 23Z" fill="currentColor"></path></svg>
