<svg height="40" width="40" viewBox="0 0 40 40" preserveAspectRatio="xMidYMid meet" role="img" xmlns="http://www.w3.org/2000/svg"><path fill-rule="evenodd" clip-rule="evenodd" d="M1 7.25C0.585786 7.25 0.25 7.58579 0.25 8V10.0854C0.25 10.4032 0.450372 10.6866 0.750065 10.7925C1.04237 10.8958 1.25 11.1746 1.25 11.5C1.25 11.8254 1.04238 12.1042 0.750065 12.2075C0.450372 12.3134 0.25 12.5968 0.25 12.9146V15.2289C0.25 15.5544 0.460043 15.8428 0.769912 15.9427C2.43533 16.4795 3.66034 18.0854 3.66034 20C3.66034 21.9146 2.43533 23.5205 0.769912 24.0573C0.460043 24.1572 0.25 24.4456 0.25 24.7711V27.0854C0.25 27.4032 0.450371 27.6866 0.750064 27.7925C1.04238 27.8958 1.25 28.1746 1.25 28.5C1.25 28.8254 1.04238 29.1042 0.750064 29.2075C0.450371 29.3134 0.25 29.5968 0.25 29.9146V32C0.25 32.4142 0.585786 32.75 1 32.75H39C39.4142 32.75 39.75 32.4142 39.75 32V29.9146C39.75 29.5968 39.5496 29.3134 39.2499 29.2075C38.9576 29.1042 38.75 28.8254 38.75 28.5C38.75 28.1746 38.9576 27.8958 39.2499 27.7925C39.5496 27.6866 39.75 27.4032 39.75 27.0854V24.7711C39.75 24.4455 39.54 24.1571 39.2301 24.0572C37.5648 23.5204 36.3398 21.9146 36.3398 20C36.3398 18.0854 37.5648 16.4796 39.2301 15.9428C39.54 15.8429 39.75 15.5545 39.75 15.2289V12.9146C39.75 12.5968 39.5496 12.3134 39.2499 12.2075C38.9576 12.1042 38.75 11.8254 38.75 11.5C38.75 11.1746 38.9576 10.8958 39.2499 10.7925C39.5496 10.6866 39.75 10.4032 39.75 10.0854V8C39.75 7.58579 39.4142 7.25 39 7.25H1ZM1.75 9.62911V8.75H38.25V9.62912C37.6475 10.0324 37.25 10.7192 37.25 11.5C37.25 12.2808 37.6475 12.9676 38.25 13.3709V14.7122C36.2375 15.5935 34.8398 17.6357 34.8398 20C34.8398 22.3643 36.2375 24.4065 38.25 25.2878V26.6291C37.6475 27.0324 37.25 27.7192 37.25 28.5C37.25 29.2808 37.6475 29.9676 38.25 30.3709V31.25H1.75V30.3709C2.35251 29.9676 2.75 29.2808 2.75 28.5C2.75 27.7192 2.35251 27.0324 1.75 26.6291V25.2879C3.7626 24.4066 5.16034 22.3644 5.16034 20C5.16034 17.6356 3.7626 15.5934 1.75 14.7121V13.3709C2.35251 12.9676 2.75 12.2808 2.75 11.5C2.75 10.7192 2.35251 10.0324 1.75 9.62911ZM30 12C30.5523 12 31 11.5523 31 11C31 10.4477 30.5523 10 30 10C29.4477 10 29 10.4477 29 11C29 11.5523 29.4477 12 30 12ZM31 14C31 14.5523 30.5523 15 30 15C29.4477 15 29 14.5523 29 14C29 13.4477 29.4477 13 30 13C30.5523 13 31 13.4477 31 14ZM30 18C30.5523 18 31 17.5523 31 17C31 16.4477 30.5523 16 30 16C29.4477 16 29 16.4477 29 17C29 17.5523 29.4477 18 30 18ZM31 20C31 20.5523 30.5523 21 30 21C29.4477 21 29 20.5523 29 20C29 19.4477 29.4477 19 30 19C30.5523 19 31 19.4477 31 20ZM30 24C30.5523 24 31 23.5523 31 23C31 22.4477 30.5523 22 30 22C29.4477 22 29 22.4477 29 23C29 23.5523 29.4477 24 30 24ZM31 26C31 26.5523 30.5523 27 30 27C29.4477 27 29 26.5523 29 26C29 25.4477 29.4477 25 30 25C30.5523 25 31 25.4477 31 26ZM30 30C30.5523 30 31 29.5523 31 29C31 28.4477 30.5523 28 30 28C29.4477 28 29 28.4477 29 29C29 29.5523 29.4477 30 30 30Z" fill="currentColor"></path><path fill-rule="evenodd" clip-rule="evenodd" d="M16.5 17C16.5 18.933 14.933 20.5 13 20.5C11.067 20.5 9.5 18.933 9.5 17C9.5 15.067 11.067 13.5 13 13.5C14.933 13.5 16.5 15.067 16.5 17ZM18 17C18 19.7614 15.7614 22 13 22C10.2386 22 8 19.7614 8 17C8 14.2386 10.2386 12 13 12C15.7614 12 18 14.2386 18 17ZM8 26.25V27.75H25V26.25H8Z" fill="currentColor"></path></svg>
