<svg height="40" width="40" viewBox="0 0 40 40" preserveAspectRatio="xMidYMid meet" role="img" xmlns="http://www.w3.org/2000/svg"><path fill-rule="evenodd" clip-rule="evenodd" d="M20.1177 6.75C14.8451 6.75 8.81261 7.16011 5.25566 7.44544C3.78892 7.56309 2.62053 8.67037 2.44414 10.1167C2.128 12.7089 1.75 16.5364 1.75 20C1.75 23.4636 2.128 27.2911 2.44414 29.8833C2.62053 31.3296 3.78892 32.4369 5.25566 32.5546C8.81261 32.8399 14.8451 33.25 20.1177 33.25C25.3393 33.25 31.3064 32.8478 34.8763 32.5628C36.3815 32.4427 37.5695 31.2815 37.7122 29.787C37.9597 27.1949 38.25 23.4218 38.25 20C38.25 16.5782 37.9597 12.8051 37.7122 10.213C37.5695 8.71848 36.3815 7.5573 34.8763 7.43716C31.3064 7.15223 25.3393 6.75 20.1177 6.75ZM5.13572 5.95024C8.70286 5.66409 14.7835 5.25 20.1177 5.25C25.4005 5.25 31.4154 5.65616 34.9956 5.94192C37.2177 6.11927 38.9927 7.84284 39.2054 10.0705C39.4545 12.6794 39.75 16.5075 39.75 20C39.75 23.4925 39.4545 27.3206 39.2054 29.9295C38.9927 32.1572 37.2177 33.8807 34.9956 34.0581C31.4154 34.3438 25.4005 34.75 20.1177 34.75C14.7835 34.75 8.70286 34.3359 5.13572 34.0498C2.97293 33.8763 1.21959 32.233 0.955174 30.0649C0.636494 27.4519 0.25 23.5541 0.25 20C0.25 16.4459 0.636494 12.5481 0.955174 9.93509C1.21959 7.76699 2.97293 6.12373 5.13572 5.95024Z" fill="currentColor"></path><path fill-rule="evenodd" clip-rule="evenodd" d="M18.75 16.6013V23.3987L22.8285 20L18.75 16.6013ZM17.25 16.0675C17.25 15.0077 18.4861 14.4288 19.3002 15.1072L24.0192 19.0397C24.6189 19.5395 24.6189 20.4605 24.0192 20.9603L19.3002 24.8928C18.4861 25.5712 17.25 24.9923 17.25 23.9325V16.0675Z" fill="currentColor"></path></svg>
