<svg height="32" width="32" viewBox="0 0 24 24" preserveAspectRatio="xMidYMid meet" role="img" xmlns="http://www.w3.org/2000/svg"><path fill-rule="evenodd" clip-rule="evenodd" d="M22.7489 1.55201L22.1977 3.53011C22.1232 3.79735 22.0368 4.05442 21.9484 4.29111L23.9214 3.28228L22.6493 5.48248C22.1499 6.34614 21.5278 7.12178 20.8083 7.76796L20.8136 8.0045V8.01291C20.8136 11.1356 19.7875 14.4977 17.8037 17.0948C15.8079 19.7078 12.8273 21.5589 8.9744 21.5589C6.59849 21.5589 4.39616 20.7533 2.5535 19.388L0.233276 17.6688L3.09684 18.0416C3.37247 18.0775 3.64994 18.097 3.92964 18.097C4.99575 18.097 6.01153 17.8228 6.92588 17.3245C5.57894 16.8311 4.32683 15.8235 3.46824 14.3374L2.60635 12.8456L4.28534 13.2312C4.27149 13.228 4.27187 13.228 4.29218 13.2292C4.30826 13.2302 4.33683 13.232 4.38074 13.2335C4.1457 13.0342 3.92215 12.8158 3.71473 12.5807C2.86794 11.6212 2.25001 10.3374 2.25001 8.85968V6.79288L3.41594 8.13826C3.17709 7.5032 3.04664 6.80724 3.04664 6.08253C3.04664 5.14199 3.26462 4.25296 3.65479 3.48298L4.21773 2.37202L4.93636 3.38924C6.564 5.69317 8.89061 7.25795 11.5086 7.67571C11.5068 7.61612 11.506 7.55634 11.506 7.4964C11.506 4.70396 13.49 2.25 16.1538 2.25C17.3581 2.25 18.439 2.76327 19.2491 3.5788C19.8865 3.38592 20.4916 3.0919 21.0525 2.70923L22.7489 1.55201ZM4.02077 10.2667C4.2124 10.7536 4.49593 11.199 4.83941 11.5882C5.49895 12.3356 6.3394 12.8293 7.06032 12.9967L9.75657 13.6227L7.1131 14.4435C7.09355 14.4496 7.07285 14.4561 7.0511 14.4629C6.75263 14.5564 6.25551 14.7122 5.79412 14.7122C5.75449 14.7122 5.69372 14.7136 5.61615 14.7157C6.55148 15.6771 7.71651 16.1527 8.78585 16.175L10.674 16.2145L9.2732 17.4812C8.23286 18.4219 6.98923 19.0977 5.62445 19.4074C6.67707 19.8302 7.80358 20.0589 8.9744 20.0589C12.2915 20.0589 14.8555 18.4836 16.6117 16.1843C18.3783 13.8715 19.3118 10.8393 19.3136 8.02121L19.2925 7.08316L19.5739 6.85157C19.8843 6.59608 20.1773 6.31008 20.4493 5.99757L19.5697 5.74107L20.0242 4.92084L20.0274 4.91497L20.0363 4.89854C19.7524 4.99943 19.4619 5.08422 19.1655 5.1519L18.7106 5.25575L18.4164 4.89361C17.8281 4.16945 17.0207 3.75 16.1538 3.75C14.5126 3.75 13.006 5.3239 13.006 7.4964C13.006 7.79976 13.0357 8.0938 13.092 8.37252L13.2849 9.32623L12.3135 9.26993C9.29268 9.09485 6.59228 7.6301 4.60167 5.38022C4.56559 5.607 4.54664 5.84172 4.54664 6.08253C4.54664 7.42753 5.14052 8.57802 5.98802 9.23144L7.84791 10.6654L5.50117 10.5748C5.10059 10.5594 4.54872 10.4506 4.02077 10.2667ZM20.6806 5.28379L20.4842 5.95714C20.4843 5.95698 20.4841 5.9573 20.4842 5.95714C20.5044 5.88723 20.5553 5.71344 20.6806 5.28379Z"></path></svg>
