<svg height="24" width="24" viewBox="0 0 24 24" preserveAspectRatio="xMidYMid meet" role="img" xmlns="http://www.w3.org/2000/svg" class="base-icon__StyledIconSvg-sc-fzrbhv-0 iZmRxR"><title>icon</title><path fill-rule="evenodd" clip-rule="evenodd" d="M12.0001 5.75C11.1157 5.75 10.3401 5.97059 9.7804 6.53033C9.22066 7.09007 8.75007 8.11561 8.75007 10C8.75007 12.4237 9.23891 13.7095 9.81951 14.3869C10.375 15.0349 11.1239 15.25 12.0001 15.25C12.8763 15.25 13.6252 15.0349 14.1806 14.3869C14.7612 13.7095 15.2501 12.4237 15.2501 10C15.2501 8.11561 14.7795 7.09007 14.2197 6.53033C13.66 5.97059 12.8845 5.75 12.0001 5.75ZM12.0001 4.25C13.1157 4.25 14.3401 4.52941 15.2804 5.46967C16.2207 6.40993 16.7501 7.88439 16.7501 10C16.7501 12.5763 16.2389 14.2905 15.3195 15.3631C15.2174 15.4822 15.1117 15.5918 15.003 15.6925C15.6893 16.6963 16.8786 17.8861 19.1234 18.2602L18.8768 19.7398C16.0501 19.2687 14.549 17.707 13.72 16.4723C13.1509 16.6793 12.5597 16.75 12.0001 16.75C11.4405 16.75 10.8493 16.6793 10.2801 16.4723C9.45109 17.707 7.95005 19.2687 5.12331 19.7398L4.87671 18.2602C7.12152 17.8861 8.31082 16.6963 8.99715 15.6925C8.88843 15.5918 8.78273 15.4822 8.68062 15.3631C7.76123 14.2905 7.25007 12.5763 7.25007 10C7.25007 7.88439 7.77948 6.40993 8.71974 5.46967C9.66 4.52941 10.8845 4.25 12.0001 4.25Z" fill="currentColor"></path><path fill-rule="evenodd" clip-rule="evenodd" d="M12 2.75C6.89137 2.75 2.75 6.89137 2.75 12C2.75 17.1086 6.89137 21.25 12 21.25C17.1086 21.25 21.25 17.1086 21.25 12C21.25 6.89137 17.1086 2.75 12 2.75ZM1.25 12C1.25 6.06294 6.06294 1.25 12 1.25C17.9371 1.25 22.75 6.06294 22.75 12C22.75 17.9371 17.9371 22.75 12 22.75C6.06294 22.75 1.25 17.9371 1.25 12Z" fill="currentColor"></path></svg>
