<svg height="32" width="32" viewBox="0 0 24 24" preserveAspectRatio="xMidYMid meet" role="img" xmlns="http://www.w3.org/2000/svg"><path fill-rule="evenodd" clip-rule="evenodd" d="M4.12626 6.04674C5.97119 5.92349 9.08736 5.75 12 5.75C14.9126 5.75 18.0288 5.92349 19.8737 6.04674C20.4614 6.08601 20.9261 6.54031 20.9781 7.12446C21.1019 8.51248 21.25 10.4927 21.25 12C21.25 13.507 21.1021 15.5645 20.9782 17.0186C20.9264 17.6276 20.4282 18.0989 19.8099 18.1175C17.9512 18.1734 14.8785 18.25 12 18.25C9.12145 18.25 6.04877 18.1734 4.19006 18.1175C3.57177 18.0989 3.07362 17.6276 3.02177 17.0186C2.89795 15.5645 2.75 13.507 2.75 12C2.75 10.4927 2.89809 8.51248 3.02186 7.12446C3.07395 6.54031 3.53858 6.08601 4.12626 6.04674ZM12 4.25C9.03784 4.25 5.88306 4.42603 4.02627 4.55008C2.7041 4.63841 1.64571 5.66884 1.52779 6.99123C1.40359 8.38401 1.25 10.421 1.25 12C1.25 13.5764 1.40316 15.6894 1.52718 17.1459C1.64429 18.5213 2.7726 19.5755 4.14495 19.6168C6.00918 19.6729 9.09922 19.75 12 19.75C14.9008 19.75 17.9908 19.6729 19.8551 19.6168C21.2274 19.5755 22.3557 18.5213 22.4728 17.1459C22.5968 15.6894 22.75 13.5764 22.75 12C22.75 10.421 22.5964 8.38401 22.4722 6.99123C22.3543 5.66884 21.2959 4.63841 19.9737 4.55008C18.1169 4.42603 14.9622 4.25 12 4.25ZM15 12L10 9V15L15 12Z"></path></svg>
